<svg version="1" xmlns="http://www.w3.org/2000/svg" width="273.333" height="273.333" viewBox="0 0 205.000000 205.000000"><path d="M72.8 4.3c-1.5 1.2-3.1 3.3-3.6 4.7-.7 2-.9 12.1-.3 18.8.2 2.8 6.2 7.2 9.6 7.2 8.5 0 11.7-3.8 12.3-14.6.4-8.6-.9-13.6-4.5-16.4-3.6-2.8-10-2.7-13.5.3zM27.5 16.2l-3.8 3.5v86.9c0 79.3.1 87.2 1.6 90.1 1 1.8 2.7 3.8 4 4.5 3.4 1.9 141.1 2 144.9.1 5.9-2.9 6.1-4.3 6.1-43.3-.1-22.8-.4-36.5-1.1-38.2-2.1-5.3-9.1-7.7-14.9-5.3-5.2 2.2-6.2 5.5-6.4 21.1 0 7.7-.6 14.8-1.2 15.9-4 7.7-13.8 8.3-19 1.3-1.9-2.6-2.1-4.4-2.2-23.3l-.1-20.6-3.1-3.1c-5.1-5.1-13.2-4.5-17 1.1-1.6 2.3-1.9 6-2.3 29.3l-.5 26.8-2.6 2.6c-1.8 1.8-4.1 2.8-7.3 3.1-4.2.5-4.8.3-8.1-3-2.8-2.8-3.5-4.3-3.5-7.3-.1-2.2-.1-11.5-.1-20.8l-.1-16.8-3.3-3.6c-2.8-3.1-3.8-3.6-7.8-3.6-4.8 0-7.8 1.8-9.9 5.8-.6 1.1-1.2 6-1.4 10.8-.3 10.2-1.6 13.2-7.2 15.5-5 2.1-10.3.5-13.1-4.1-2.1-3.3-2.1-4.4-2.1-62.5V20l-2.8-3.1c-2.1-2.4-3.9-3.2-7.4-3.6-4.2-.5-4.9-.2-8.3 2.9z"/><path d="M74.3 48c-5.5 3.3-6 5.4-5.8 27 .1 21.1.5 22.9 5.5 25.5 5.6 2.9 11.9 1.4 14.9-3.5 1.6-2.7 1.9-5.5 2-21.6.2-19.7-.5-23.6-4.3-26.6-3.6-2.6-8.7-3-12.3-.8zM118.7 59.4c-4.5 3.1-5.7 6-5.7 14.9 0 9 1.5 12.9 6 15.2 5.1 2.6 11.7 1.2 14.6-3.3 2.6-3.9 2.7-19.2.2-23.3-3.1-5.1-10.2-6.8-15.1-3.5zM161.4 83.4c-2.8 2.8-3.4 4.2-3.4 7.6 0 3.4.6 4.8 3.4 7.6 7.4 7.4 18.6 2.5 18.6-8.1 0-5.5-5.2-10.5-11-10.5-3.4 0-4.8.6-7.6 3.4z"/></svg>